<?xml version="1.0" encoding="UTF-8"?>
<!DOCTYPE svg PUBLIC "-//W3C//DTD SVG 1.1//EN" "http://www.w3.org/Graphics/SVG/1.1/DTD/svg11.dtd">
<svg width="480pt" height="138pt" viewBox="0 0 480 138" version="1.1"
    xmlns="http://www.w3.org/2000/svg">
    <g id="#000000ff">
        <path fill="#000000" opacity="1.00"
            d=" M 0.00 0.00 L 447.84 0.00 C 444.79 5.13 442.02 10.43 439.09 15.64 C 453.96 20.41 466.77 31.27 473.69 45.30 C 477.39 52.44 479.34 60.37 480.00 68.36 L 480.00 75.66 C 479.01 90.84 472.07 105.54 460.78 115.77 C 449.58 126.07 434.26 131.73 419.04 131.09 C 405.75 130.75 392.74 125.61 382.61 117.03 C 378.60 123.98 374.92 131.11 370.82 138.00 L 0.00 138.00 L 0.00 0.00 M 377.24 32.22 C 366.46 43.95 360.93 60.21 362.11 76.08 C 363.05 91.57 370.52 106.50 382.22 116.66 C 401.26 83.09 419.86 49.26 438.75 15.60 C 417.32 8.49 392.19 15.32 377.24 32.22 M 173.44 30.48 C 166.80 35.53 160.50 41.02 154.06 46.33 C 152.39 46.60 151.00 46.25 149.88 45.27 C 151.01 45.10 153.25 44.75 154.37 44.58 C 154.06 44.37 153.44 43.95 153.13 43.74 C 148.16 43.75 144.05 47.23 141.55 51.26 C 142.37 53.72 145.53 52.29 147.33 52.48 C 145.34 54.44 143.79 57.00 141.16 58.20 C 137.81 59.99 134.78 62.66 133.08 66.10 C 132.48 68.50 135.91 68.36 137.15 67.23 C 142.58 62.99 146.89 57.48 152.07 52.95 C 156.15 52.05 160.46 52.70 164.63 52.21 C 163.27 55.78 160.09 59.06 160.64 63.05 C 161.51 66.46 165.70 65.20 167.85 63.82 C 170.46 62.02 173.55 60.23 174.95 57.26 C 172.46 55.80 170.64 60.52 167.70 59.44 C 168.88 56.91 170.18 54.45 171.34 51.90 C 172.93 51.69 174.54 51.51 176.15 51.37 C 177.48 49.10 178.90 46.89 180.37 44.71 C 178.63 44.64 176.88 44.67 175.14 44.77 C 177.85 39.63 181.08 34.77 183.62 29.55 C 184.46 28.19 183.68 25.91 182.01 25.71 C 178.77 26.46 176.10 28.60 173.44 30.48 M 435.37 25.60 C 420.07 52.35 405.21 79.35 390.14 106.23 C 392.87 106.25 395.62 106.25 398.36 106.27 C 408.13 89.15 417.60 71.87 427.41 54.78 C 427.61 71.93 427.44 89.09 427.50 106.25 C 430.08 106.25 432.66 106.25 435.25 106.25 C 434.98 79.36 435.84 52.48 435.37 25.60 M 211.89 40.87 C 209.77 41.23 207.34 41.09 205.61 42.59 C 204.02 44.14 203.00 46.14 201.80 47.99 C 203.58 48.00 205.37 48.01 207.16 48.04 C 203.55 52.80 199.27 57.51 193.68 59.89 C 193.29 59.38 192.52 58.35 192.13 57.84 C 192.86 54.18 196.26 52.12 198.52 49.46 C 199.87 47.68 198.39 45.58 197.33 44.09 C 194.57 44.49 191.80 44.88 189.04 45.32 C 188.99 44.71 188.87 43.49 188.82 42.87 C 184.31 43.35 179.08 49.01 181.87 53.67 C 180.40 55.33 178.19 56.82 178.71 59.36 C 181.37 57.46 183.71 55.13 185.66 52.50 C 187.71 51.94 189.78 51.45 191.86 51.00 C 189.47 53.92 186.56 56.92 186.47 60.94 C 186.39 63.63 189.30 66.34 191.94 64.89 C 195.81 63.05 198.87 59.92 201.91 56.97 C 200.66 60.11 198.98 65.96 203.97 66.55 C 209.99 65.94 214.18 61.01 218.54 57.35 C 218.41 56.51 218.28 55.68 218.15 54.85 C 215.33 56.78 212.74 59.13 209.59 60.53 C 208.42 61.08 206.53 60.83 206.75 59.12 C 206.70 55.04 209.52 51.71 211.57 48.41 C 213.67 48.12 216.15 48.43 217.80 46.83 C 219.40 45.23 220.24 43.08 221.28 41.12 C 220.45 41.03 218.80 40.87 217.98 40.78 C 218.43 39.27 221.35 37.09 219.02 36.03 C 215.64 35.35 213.62 38.57 211.89 40.87 M 54.17 46.35 C 41.33 48.59 29.20 56.22 22.61 67.60 C 18.91 74.17 17.57 82.90 21.57 89.64 C 28.45 87.83 35.38 85.58 41.13 81.25 C 48.54 76.08 53.26 67.89 60.97 63.11 C 67.59 58.98 75.41 57.41 83.05 56.47 C 82.12 53.50 79.50 51.58 77.03 49.93 C 70.26 45.75 61.88 45.00 54.17 46.35 M 65.39 64.34 C 58.42 68.99 54.17 76.59 47.31 81.35 C 40.09 86.68 31.31 89.16 22.66 91.06 C 25.42 96.33 31.37 98.93 36.88 100.26 C 49.22 102.73 62.29 98.77 72.13 91.18 C 79.92 85.24 86.21 76.20 86.24 66.09 C 85.95 63.35 85.86 60.04 83.98 57.90 C 77.39 58.12 70.85 60.66 65.39 64.34 M 328.00 60.96 C 324.25 65.37 322.58 71.05 320.68 76.40 C 318.68 76.27 316.68 76.13 314.69 75.94 C 312.11 81.67 309.94 87.93 305.27 92.34 C 304.32 93.31 301.92 94.13 301.99 91.92 C 302.91 86.15 305.51 80.72 308.80 75.92 C 306.03 75.56 303.46 76.36 301.53 78.36 C 299.51 75.01 294.83 75.17 291.78 76.84 C 286.09 80.34 282.91 87.28 283.30 93.85 C 283.31 95.82 284.80 97.91 286.93 97.70 C 291.47 97.29 293.94 92.95 296.67 89.87 C 296.11 89.45 295.56 89.02 295.01 88.60 C 294.22 91.38 291.42 93.00 288.72 93.44 C 287.85 87.94 291.13 82.62 295.12 79.11 C 296.93 77.39 299.58 77.49 301.65 78.69 C 300.08 81.61 298.40 84.48 296.42 87.14 C 296.87 87.53 297.33 87.93 297.79 88.33 C 297.19 90.83 296.98 93.45 297.47 95.99 C 298.35 98.66 301.80 97.95 303.46 96.48 C 308.61 92.28 311.37 86.06 314.60 80.43 C 315.59 78.64 317.96 79.04 319.64 78.58 C 316.87 86.21 313.81 93.74 310.13 100.98 C 308.46 103.86 307.02 107.29 303.92 108.92 C 302.70 110.24 299.87 108.85 300.96 107.13 C 301.54 105.63 302.76 103.19 300.13 103.14 C 296.97 104.32 297.31 109.33 300.39 110.42 C 304.48 112.04 308.72 109.49 311.26 106.36 C 317.88 98.47 320.85 88.39 324.18 78.84 C 327.09 78.93 329.97 78.15 332.87 78.18 C 333.40 79.54 331.72 80.17 331.11 81.13 C 327.95 84.72 326.14 90.20 328.17 94.76 C 329.96 97.78 334.00 98.53 337.20 97.78 C 340.78 97.00 343.58 94.33 345.64 91.43 C 347.37 88.95 349.57 86.36 349.29 83.13 C 346.81 86.91 344.80 91.19 341.00 93.88 C 338.91 95.59 335.51 96.69 333.18 94.85 C 331.49 92.38 332.43 89.30 333.00 86.63 C 336.44 87.30 340.19 87.19 343.23 85.24 C 346.10 83.86 347.51 79.30 344.62 77.21 C 341.84 74.67 337.95 76.83 334.99 76.95 C 332.08 75.39 328.21 77.12 324.96 76.83 C 326.35 72.45 327.99 68.14 330.11 64.07 C 331.24 62.11 332.46 59.87 334.79 59.19 C 335.03 58.71 335.50 57.75 335.74 57.28 C 332.86 57.60 329.88 58.66 328.00 60.96 M 335.98 58.82 C 340.22 59.16 336.63 63.24 336.33 65.33 C 341.60 67.57 343.45 58.75 338.44 57.46 C 337.62 57.91 336.80 58.36 335.98 58.82 M 252.97 72.01 C 249.16 77.97 246.47 85.45 248.64 92.49 C 250.04 96.75 254.61 99.05 258.88 99.02 C 266.87 99.54 275.19 96.56 280.59 90.56 C 282.36 88.57 284.44 85.82 282.64 83.18 C 279.98 88.44 275.27 92.44 270.00 94.95 C 266.14 96.66 261.36 97.68 257.50 95.45 C 254.10 93.20 253.71 88.64 254.05 84.93 C 255.11 75.50 261.15 66.48 269.91 62.59 C 272.77 61.52 276.12 60.58 279.09 61.78 C 281.43 63.05 280.71 66.57 278.76 67.87 C 277.30 69.43 275.07 69.19 273.14 69.36 C 273.09 70.03 272.98 71.37 272.92 72.04 C 278.10 74.58 285.58 69.26 283.75 63.44 C 281.64 59.70 276.80 59.08 272.91 59.26 C 264.71 59.91 257.26 65.11 252.97 72.01 Z" />
        <path fill="#000000" opacity="1.00"
            d=" M 160.07 45.57 C 165.56 41.02 170.86 36.20 176.66 32.05 C 173.98 36.29 171.46 40.64 168.91 44.95 C 165.96 45.19 163.02 45.41 160.07 45.57 Z" />
        <path fill="#000000" opacity="1.00"
            d=" M 334.48 85.47 C 334.75 81.25 338.98 77.26 343.32 77.70 C 343.79 82.39 339.00 86.34 334.48 85.47 Z" />
    </g>
    <g id="#6f4a2fff">
        <path fill="#6f4a2f" opacity="1.00"
            d=" M 377.24 32.22 C 392.19 15.32 417.32 8.49 438.75 15.60 C 419.86 49.26 401.26 83.09 382.22 116.66 C 370.52 106.50 363.05 91.57 362.11 76.08 C 360.93 60.21 366.46 43.95 377.24 32.22 Z" />
        <path fill="#6f4a2f" opacity="1.00"
            d=" M 54.17 46.35 C 61.88 45.00 70.26 45.75 77.03 49.93 C 79.50 51.58 82.12 53.50 83.05 56.47 C 75.41 57.41 67.59 58.98 60.97 63.11 C 53.26 67.89 48.54 76.08 41.13 81.25 C 35.38 85.58 28.45 87.83 21.57 89.64 C 17.57 82.90 18.91 74.17 22.61 67.60 C 29.20 56.22 41.33 48.59 54.17 46.35 Z" />
        <path fill="#6f4a2f" opacity="1.00"
            d=" M 65.39 64.34 C 70.85 60.66 77.39 58.12 83.98 57.90 C 85.86 60.04 85.95 63.35 86.24 66.09 C 86.21 76.20 79.92 85.24 72.13 91.18 C 62.29 98.77 49.22 102.73 36.88 100.26 C 31.37 98.93 25.42 96.33 22.66 91.06 C 31.31 89.16 40.09 86.68 47.31 81.35 C 54.17 76.59 58.42 68.99 65.39 64.34 Z" />
    </g>
    <g id="#ffffffff">
        <path fill="#ffffff" opacity="1.00"
            d=" M 173.44 30.48 C 176.10 28.60 178.77 26.46 182.01 25.71 C 183.68 25.91 184.46 28.19 183.62 29.55 C 181.08 34.77 177.85 39.63 175.14 44.77 C 176.88 44.67 178.63 44.64 180.37 44.71 C 178.90 46.89 177.48 49.10 176.15 51.37 C 174.54 51.51 172.93 51.69 171.34 51.90 C 170.18 54.45 168.88 56.91 167.70 59.44 C 170.64 60.52 172.46 55.80 174.95 57.26 C 173.55 60.23 170.46 62.02 167.85 63.82 C 165.70 65.20 161.51 66.46 160.64 63.05 C 160.09 59.06 163.27 55.78 164.63 52.21 C 160.46 52.70 156.15 52.05 152.07 52.95 C 146.89 57.48 142.58 62.99 137.15 67.23 C 135.91 68.36 132.48 68.50 133.08 66.10 C 134.78 62.66 137.81 59.99 141.16 58.20 C 143.79 57.00 145.34 54.44 147.33 52.48 C 145.53 52.29 142.37 53.72 141.55 51.26 C 144.05 47.23 148.16 43.75 153.13 43.74 C 153.44 43.95 154.06 44.37 154.37 44.58 C 153.25 44.75 151.01 45.10 149.88 45.27 C 151.00 46.25 152.39 46.60 154.06 46.33 C 160.50 41.02 166.80 35.53 173.44 30.48 M 160.07 45.57 C 163.02 45.41 165.96 45.19 168.91 44.95 C 171.46 40.64 173.98 36.29 176.66 32.05 C 170.86 36.20 165.56 41.02 160.07 45.57 Z" />
        <path fill="#ffffff" opacity="1.00"
            d=" M 435.37 25.60 C 435.84 52.48 434.98 79.36 435.25 106.25 C 432.66 106.25 430.08 106.25 427.50 106.25 C 427.44 89.09 427.61 71.93 427.41 54.78 C 417.60 71.87 408.13 89.15 398.36 106.27 C 395.62 106.25 392.87 106.25 390.14 106.23 C 405.21 79.35 420.07 52.35 435.37 25.60 Z" />
        <path fill="#ffffff" opacity="1.00"
            d=" M 211.89 40.87 C 213.62 38.57 215.64 35.35 219.02 36.03 C 221.35 37.09 218.43 39.27 217.98 40.78 C 218.80 40.87 220.45 41.03 221.28 41.12 C 220.24 43.08 219.40 45.23 217.80 46.83 C 216.15 48.43 213.67 48.12 211.57 48.41 C 209.52 51.71 206.70 55.04 206.75 59.12 C 206.53 60.83 208.42 61.08 209.59 60.53 C 212.74 59.13 215.33 56.78 218.15 54.85 C 218.28 55.68 218.41 56.51 218.54 57.35 C 214.18 61.01 209.99 65.94 203.97 66.55 C 198.98 65.96 200.66 60.11 201.91 56.97 C 198.87 59.92 195.81 63.05 191.94 64.89 C 189.30 66.34 186.39 63.63 186.47 60.94 C 186.56 56.92 189.47 53.92 191.86 51.00 C 189.78 51.45 187.71 51.94 185.66 52.50 C 183.71 55.13 181.37 57.46 178.71 59.36 C 178.19 56.82 180.40 55.33 181.87 53.67 C 179.08 49.01 184.31 43.35 188.82 42.87 C 188.87 43.49 188.99 44.71 189.04 45.32 C 191.80 44.88 194.57 44.49 197.33 44.09 C 198.39 45.58 199.87 47.68 198.52 49.46 C 196.26 52.12 192.86 54.18 192.13 57.84 C 192.52 58.35 193.29 59.38 193.68 59.89 C 199.27 57.51 203.55 52.80 207.16 48.04 C 205.37 48.01 203.58 48.00 201.80 47.99 C 203.00 46.14 204.02 44.14 205.61 42.59 C 207.34 41.09 209.77 41.23 211.89 40.87 Z" />
        <path fill="#ffffff" opacity="1.00"
            d=" M 328.00 60.96 C 329.88 58.66 332.86 57.60 335.74 57.28 C 335.50 57.75 335.03 58.71 334.79 59.19 C 332.46 59.87 331.24 62.11 330.11 64.07 C 327.99 68.14 326.35 72.45 324.96 76.83 C 328.21 77.12 332.08 75.39 334.99 76.95 C 337.95 76.83 341.84 74.67 344.62 77.21 C 347.51 79.30 346.10 83.86 343.23 85.24 C 340.19 87.19 336.44 87.30 333.00 86.63 C 332.43 89.30 331.49 92.38 333.18 94.85 C 335.51 96.69 338.91 95.59 341.00 93.88 C 344.80 91.19 346.81 86.91 349.29 83.13 C 349.57 86.36 347.37 88.95 345.64 91.43 C 343.58 94.33 340.78 97.00 337.20 97.78 C 334.00 98.53 329.96 97.78 328.17 94.76 C 326.14 90.20 327.95 84.72 331.11 81.13 C 331.72 80.17 333.40 79.54 332.87 78.18 C 329.97 78.15 327.09 78.93 324.18 78.84 C 320.85 88.39 317.88 98.47 311.26 106.36 C 308.72 109.49 304.48 112.04 300.39 110.42 C 297.31 109.33 296.97 104.32 300.13 103.14 C 302.76 103.19 301.54 105.63 300.96 107.13 C 299.87 108.85 302.70 110.24 303.92 108.92 C 307.02 107.29 308.46 103.86 310.13 100.98 C 313.81 93.74 316.87 86.21 319.64 78.58 C 317.96 79.04 315.59 78.64 314.60 80.43 C 311.37 86.06 308.61 92.28 303.46 96.48 C 301.80 97.95 298.35 98.66 297.47 95.99 C 296.98 93.45 297.19 90.83 297.79 88.33 C 297.33 87.93 296.87 87.53 296.42 87.14 C 298.40 84.48 300.08 81.61 301.65 78.69 C 299.58 77.49 296.93 77.39 295.12 79.11 C 291.13 82.62 287.85 87.94 288.72 93.44 C 291.42 93.00 294.22 91.38 295.01 88.60 C 295.56 89.02 296.11 89.45 296.67 89.87 C 293.94 92.95 291.47 97.29 286.93 97.70 C 284.80 97.91 283.31 95.82 283.30 93.85 C 282.91 87.28 286.09 80.34 291.78 76.84 C 294.83 75.17 299.51 75.01 301.53 78.36 C 303.46 76.36 306.03 75.56 308.80 75.92 C 305.51 80.72 302.91 86.15 301.99 91.92 C 301.92 94.13 304.32 93.31 305.27 92.34 C 309.94 87.93 312.11 81.67 314.69 75.94 C 316.68 76.13 318.68 76.27 320.68 76.40 C 322.58 71.05 324.25 65.37 328.00 60.96 M 334.48 85.47 C 339.00 86.34 343.79 82.39 343.32 77.70 C 338.98 77.26 334.75 81.25 334.48 85.47 Z" />
        <path fill="#ffffff" opacity="1.00"
            d=" M 335.98 58.82 C 336.80 58.36 337.62 57.91 338.44 57.46 C 343.45 58.75 341.60 67.57 336.33 65.33 C 336.63 63.24 340.22 59.16 335.98 58.82 Z" />
        <path fill="#ffffff" opacity="1.00"
            d=" M 252.97 72.01 C 257.26 65.11 264.71 59.91 272.91 59.26 C 276.80 59.08 281.64 59.70 283.75 63.44 C 285.58 69.26 278.10 74.58 272.92 72.04 C 272.98 71.37 273.09 70.03 273.14 69.36 C 275.07 69.19 277.30 69.43 278.76 67.87 C 280.71 66.57 281.43 63.05 279.09 61.78 C 276.12 60.58 272.77 61.52 269.91 62.59 C 261.15 66.48 255.11 75.50 254.05 84.93 C 253.71 88.64 254.10 93.20 257.50 95.45 C 261.36 97.68 266.14 96.66 270.00 94.95 C 275.27 92.44 279.98 88.44 282.64 83.18 C 284.44 85.82 282.36 88.57 280.59 90.56 C 275.19 96.56 266.87 99.54 258.88 99.02 C 254.61 99.05 250.04 96.75 248.64 92.49 C 246.47 85.45 249.16 77.97 252.97 72.01 Z" />
    </g>
</svg>