<svg xmlns="http://www.w3.org/2000/svg" viewBox="0 0 480.89 172">
    <defs>
        <style>.cls-1,.cls-2{isolation:isolate;}.cls-1{font-size:57px;font-family:BrushScriptStd,
            Brush Script
            Std;}.cls-1,.cls-2,.cls-5{fill:#fff;}.cls-2{font-size:54px;font-family:Playball-Regular,
            Playball;}.cls-3{fill:none;}.cls-4,.cls-6{fill:#6f4a2f;}.cls-6{fill-rule:evenodd;}</style>
    </defs>
    <g id="Layer_2" data-name="Layer 2">
        <g id="Layer_1-2" data-name="Layer 1">
            <path d="M449.07,16l-9.62,17.24-8.36,15L370.93,156H0V16Z" />
            <text class="cls-1" transform="translate(137.61 81.82)">Art</text>
            <text class="cls-2" transform="translate(18.81 114.59)">
                <tspan xml:space="preserve">              Cafe</tspan>
            </text>
            <path class="cls-3" d="M383.44,133.43,431.09,48.2l8.36-15M370.83,156,363,170" />
            <path class="cls-4" d="M439.76,32.76,383.34,133.67A59,59,0,0,1,439.76,32.76Z" />
            <path d="M480.89,89a59,59,0,0,1-97.55,44.67L439.76,32.76A59,59,0,0,1,480.89,89Z" />
            <g id="Group_186" data-name="Group 186">
                <g id="Group_185" data-name="Group 185">
                    <g id="Words">
                        <path id="Path_59" data-name="Path 59" class="cls-5"
                            d="M436.2,42.81l-.09,80.38h-7.67l.06-52.25-29.4,52.21h-7.94Z" />
                    </g>
                </g>
            </g>
            <path class="cls-3" d="M458,0l-8.93,16-9.62,17.24-8.36,15L370.93,156,362,172" />
            <path class="cls-6"
                d="M84.52,75.4c5.85,12.72-3.62,29.74-21.15,38-16.18,7.64-33.58,5.15-40.76-5.27C41.34,104.5,48.72,98.5,55,91.67c6.05-6.62,12.14-14.6,29.24-16.9.1.2.21.41.31.63Zm-63,30.93q-.26-.48-.48-1c-5.86-12.72,3.61-29.75,21.14-38,16.52-7.8,34.3-5,41.2,5.92-18.25,2.25-24.82,7.32-31.19,14.29-6,6.53-13,15.13-30.67,18.77Z" />
        </g>
    </g>
</svg>